<svg xmlns="http://www.w3.org/2000/svg" width="108" height="42" viewBox="0 0 108 42">
    <g fill="none" fill-rule="evenodd">
        <path fill="#FFF" d="M-40-244h200v640H-40z"/>
        <g fill="#000">
            <path fill-rule="nonzero" d="M32.64 13.65h-5.042V6.527c1.658 0 3.384-.047 5.042 0 4.018.036 3.822 7.123 0 7.123zm59.657 3.538h8.508v11.34H108V0h-7.195v10.351h-8.508V0h-33.88v18.903c0 2.323-2.13 3.467-4.168 3.467-2.05 0-4.214-1.144-4.214-3.467V0h-6.734v19.034c0 6.266 5.307 9.899 10.948 9.899 5.664 0 10.902-3.633 10.902-9.899V6.527h6.366v22h6.965v-22c1.934 0 4.137-.004 6.608-.011v22.012h7.207v-11.34zm-53.832 1.227C45.442 13.531 43.473.048 32.64 0H0v6.527h7.06v22h6.965v-22c1.91 0 4.087-.004 6.527-.011v22.012h7.046V20.13h3.66l4.732 8.398h7.875v-1.06l-5.4-9.053z"/>
            <path d="M70.472 42a3.84 3.84 0 0 1-1.389-.255c-.442-.17-.803-.391-1.083-.665v-1.032c.267.299.614.556 1.04.771.459.216.92.323 1.385.323.528 0 .96-.149 1.298-.447.337-.299.506-.696.506-1.194.038-.464-.147-.857-.554-1.18a1.367 1.367 0 0 0-.4-.25l-.42-.186a2.429 2.429 0 0 0-.115-.043 3.23 3.23 0 0 1-.187-.075 3.23 3.23 0 0 0-.205-.08c-.394-.15-.63-.24-.706-.274a5.338 5.338 0 0 1-.592-.31 1.884 1.884 0 0 1-.496-.436c-.28-.381-.42-.853-.42-1.417 0-.655.203-1.193.61-1.616.408-.423.974-.634 1.7-.634.801 0 1.495.24 2.08.721v.945c-.661-.539-1.349-.808-2.061-.808-.516 0-.913.132-1.193.398-.28.265-.42.604-.42 1.019-.039.331.105.659.43.982.05.058.155.124.314.199l.325.161.41.15.401.149c.35.14.57.232.659.273.184.083.378.195.582.336.21.14.382.298.515.472.312.373.468.87.468 1.492 0 .779-.242 1.392-.725 1.84-.478.447-1.063.671-1.757.671zm9.13-.15h-.706v-8.7h.706v3.617h3.971v-3.618h.707v8.702h-.707v-4.252h-3.97v4.252zm11.65-7.557C91.896 33.43 92.698 33 93.659 33c.955 0 1.753.43 2.396 1.293.643.862.964 1.93.964 3.207 0 1.285-.321 2.358-.964 3.22-.636.853-1.435 1.28-2.396 1.28-.967 0-1.769-.427-2.405-1.28-.637-.854-.955-1.927-.955-3.22 0-1.285.318-2.354.955-3.207zm.526 5.805c.502.696 1.13 1.044 1.88 1.044s1.378-.348 1.88-1.044c.51-.704.764-1.57.764-2.598 0-1.028-.254-1.894-.764-2.598-.502-.696-1.13-1.044-1.88-1.044s-1.378.348-1.88 1.044c-.51.704-.764 1.57-.764 2.598 0 1.028.255 1.894.764 2.598zm11.984 1.753h-.707v-8.702h2.807c.662 0 1.183.22 1.565.659.382.44.573 1.023.573 1.753 0 .746-.19 1.34-.573 1.784-.382.443-.903.665-1.565.665h-2.1v3.84zm0-7.869v3.195h2.052c.471 0 .837-.139 1.098-.417.26-.277.391-.669.391-1.174 0-.514-.129-.91-.386-1.188-.258-.277-.626-.416-1.103-.416h-2.052z"/>
        </g>
    </g>
</svg>
